<?xml version="1.0" encoding="UTF-8" standalone="no"?>
<svg
   xmlns:dc="http://purl.org/dc/elements/1.1/"
   xmlns:cc="http://creativecommons.org/ns#"
   xmlns:rdf="http://www.w3.org/1999/02/22-rdf-syntax-ns#"
   xmlns:svg="http://www.w3.org/2000/svg"
   xmlns="http://www.w3.org/2000/svg"
   version="1.1"
   id="svg2"
   viewBox="0 0 150.51378 150.36086"
   height="42.435177mm"
   width="42.478333mm">
  <defs
     id="defs4" />
  <metadata
     id="metadata7">
    <rdf:RDF>
      <cc:Work
         rdf:about="">
        <dc:format>image/svg+xml</dc:format>
        <dc:type
           rdf:resource="http://purl.org/dc/dcmitype/StillImage" />
        <dc:title></dc:title>
      </cc:Work>
    </rdf:RDF>
  </metadata>
  <g
     transform="translate(-333.70703,-654.25977)"
     id="layer1">
    <path
       id="path7188"
       d="m 411.49805,654.25977 0,0.002 -5.13282,0.18359 -5.1289,0.18555 -3.17774,0.47461 c -4.51189,0.67578 -9.20189,1.83003 -13.73828,3.37891 l -3.92773,1.34179 -3.67188,1.75391 c -2.02341,0.96709 -4.96414,2.51576 -6.58008,3.4668 l -2.91796,1.71874 -3.53125,2.66016 -3.53125,2.66016 -2.84961,2.68164 -2.84961,2.67969 -2.84571,3.32031 -2.8457,3.32226 -2.33789,3.49414 c -4.20599,6.28564 -6.99992,12.10035 -9.35742,19.47461 l -1.19141,3.72266 -0.75586,3.7207 c -0.41742,2.05042 -0.90366,5.05535 -1.08789,6.73633 l -0.33203,3.02734 0.004,5.57813 0.002,5.58203 0.46875,3.5586 c 1.13325,8.59103 3.23916,15.65719 7.01367,23.54882 0.4666,0.97556 0.91489,1.86219 1.26563,2.51172 0.17537,0.32477 0.32367,0.59006 0.44531,0.78516 0.0608,0.0976 0.1138,0.17588 0.16992,0.24804 0.0281,0.0361 0.0544,0.0696 0.10156,0.11329 0.0472,0.0436 0.0873,0.15234 0.3711,0.15234 0.25854,0 0.34441,-0.0751 0.49023,-0.15039 0.14581,-0.0753 0.30879,-0.17582 0.5,-0.30078 0.38242,-0.24993 0.87272,-0.60214 1.45508,-1.04297 1.16474,-0.88165 2.6974,-2.11327 4.41016,-3.53906 3.42553,-2.85159 7.5671,-6.47448 10.87304,-9.57617 16.53198,-15.51066 34.12583,-34.93169 46.32618,-51.14063 l 4.52734,-6.01172 4.12891,-6.21094 c 4.63965,-6.97829 6.12893,-9.52826 9.46484,-16.20507 0.63857,-1.27808 1.22636,-2.44816 1.66016,-3.30469 0.18952,-0.3742 0.33379,-0.65835 0.45507,-0.89453 0.20566,0.18411 0.45198,0.41291 0.73243,0.69336 l 1.27343,1.27343 1.4668,0.39649 1.41602,0.38086 5.65234,-0.27735 5.69531,-0.28125 1.13086,-0.65429 1.15039,-0.66407 0.8125,-1.53125 0.40039,-0.75195 c 0.006,0.10363 0.01,0.18248 0.0195,0.31445 0.0369,0.50653 0.0976,1.21753 0.17774,2.08008 0.16036,1.7251 0.39578,4.04946 0.6543,6.4961 0.51701,4.89326 1.12676,10.26191 1.43359,12.32617 0.84324,5.67285 1.75817,9.8111 3.59375,16.26172 0.84124,2.95633 2.95205,10.85931 4.68555,17.53906 6.36202,24.51488 9.99804,36.38753 13.5332,44.13281 l 1.46094,3.20313 1.80664,-3.26953 c 1.95926,-3.54553 3.96081,-8.22146 5.43164,-12.68555 l 1.29297,-3.92578 0.65234,-3.02539 c 0.35958,-1.66819 0.84345,-4.36432 1.08398,-6.03321 l 0.4375,-3.02539 0.19141,-4.67578 0.19531,-4.68164 -0.35937,-4.02734 c -1.29656,-14.58678 -6.30909,-27.8034 -14.89063,-39.2461 l -2.20508,-2.93945 -3.92187,-4.0332 -3.92187,-4.03125 -2.76563,-2.22657 c -1.33378,-1.0736 -3.24192,-2.4784 -4.8457,-3.60156 -0.80189,-0.56158 -1.52595,-1.05182 -2.06836,-1.39648 -0.2712,-0.17233 -0.4959,-0.30706 -0.67383,-0.40235 -0.089,-0.0476 -0.16227,-0.0852 -0.24805,-0.11718 -0.0429,-0.016 -0.0878,-0.0325 -0.16601,-0.043 -0.007,-9.2e-4 -0.0308,0.0149 -0.0391,0.0137 l 0.004,-0.0117 -0.93945,-0.70508 c -0.14485,-0.10891 -0.3287,-0.21241 -0.61914,-0.375 -0.29044,-0.1626 -0.66636,-0.36511 -1.10352,-0.5957 -0.87434,-0.46117 -1.99376,-1.03327 -3.15234,-1.60742 l -4.22461,-2.09375 -3.39258,-1.23828 c -6.03279,-2.20038 -12.38201,-3.59958 -19.40625,-4.2793 l -3.7832,-0.36523 z m -0.0312,1.0039 3.71679,0.35938 c 6.95085,0.67262 13.21326,2.05289 19.16211,4.22265 l 3.33985,1.21875 4.17578,2.06836 c 1.15143,0.57061 2.26434,1.14164 3.1289,1.59766 0.43228,0.22801 0.8032,0.42789 1.08204,0.58398 0.27884,0.1561 0.48654,0.28625 0.50585,0.30078 l 0.25586,0.19141 -0.54687,1.02734 -0.67969,1.27735 -0.90234,0.52148 -0.91992,0.53125 -5.45313,0.26953 -5.49609,0.27149 -1.26172,-0.3418 -1.21094,-0.32617 -1.08398,-1.08399 c -0.33046,-0.33046 -0.63937,-0.62034 -0.87891,-0.83007 -0.11978,-0.10487 -0.21925,-0.18934 -0.31055,-0.25586 -0.0457,-0.0333 -0.0843,-0.0622 -0.15039,-0.0957 -0.033,-0.0168 -0.0709,-0.0359 -0.15625,-0.0527 -0.0427,-0.008 -0.0992,-0.0181 -0.18554,-0.004 -0.0432,0.007 -0.14561,0.0464 -0.14649,0.0469 -8.9e-4,4.5e-4 -0.14976,0.11648 -0.15039,0.11719 -6.4e-4,7e-4 -0.0397,0.0496 -0.0469,0.0605 -0.007,0.0109 -0.0116,0.0168 -0.0156,0.0234 -0.008,0.0133 -0.0147,0.025 -0.0215,0.0371 -0.0135,0.0242 -0.0281,0.0524 -0.0469,0.0879 -0.0376,0.0709 -0.0885,0.16902 -0.15234,0.29297 -0.12775,0.2479 -0.30592,0.59787 -0.52344,1.02734 -0.43502,0.85895 -1.02481,2.03112 -1.66406,3.31055 -3.32834,6.66165 -4.77014,9.13055 -9.40235,16.09766 l -4.11328,6.1875 -4.50976,5.98828 c -12.15329,16.14642 -29.72652,35.54582 -46.21289,51.01367 -3.28528,3.08231 -7.41804,6.69641 -10.82813,9.53516 -1.70505,1.41937 -3.22936,2.64598 -4.37305,3.51171 -0.57184,0.43286 -1.05029,0.77639 -1.39843,1.00391 -0.11794,0.0771 -0.19514,0.11951 -0.2793,0.16797 -0.0988,-0.16252 -0.22107,-0.37284 -0.37305,-0.6543 -0.33927,-0.62827 -0.78345,-1.50555 -1.24414,-2.46875 -3.73684,-7.81288 -5.80026,-14.74329 -6.92187,-23.24609 l -0.46094,-3.49609 -0.002,-5.51563 -0.004,-5.52344 0.32617,-2.97265 c 0.17744,-1.61902 0.66283,-4.63526 1.07227,-6.64649 l 0.74805,-3.66601 1.17187,-3.67188 c 2.33426,-7.30158 5.07484,-13.00353 9.23633,-19.22266 l 2.30469,-3.44531 2.80859,-3.27734 2.81055,-3.2793 2.81054,-2.64258 2.8086,-2.64453 3.48828,-2.62695 3.48633,-2.62695 2.86914,-1.68946 c 1.5673,-0.92239 4.51369,-2.47549 6.50195,-3.42578 l 3.62109,-1.73047 3.87305,-1.32226 c 4.48058,-1.52982 9.11512,-2.66787 13.5625,-3.33399 l 3.12109,-0.46875 5.07227,-0.18164 5.06641,-0.18164 z m 37.125,11.59375 c 0.0449,0.028 0.0649,0.0376 0.11328,0.0684 0.52013,0.33051 1.23728,0.81506 2.03125,1.3711 1.58795,1.11207 3.49035,2.51203 4.79297,3.56054 l 2.71875,2.18946 3.8789,3.98632 3.87696,3.98828 2.16601,2.88672 c 8.47207,11.29673 13.41415,24.32277 14.69531,38.73633 l 0.35352,3.96094 -0.19141,4.61719 -0.1914,4.625 -0.42774,2.97461 c -0.23509,1.63111 -0.72249,4.33303 -1.07422,5.96484 l -0.64062,2.97461 -1.27734,3.875 c -1.45135,4.40497 -3.43705,9.04205 -5.35547,12.51367 l -0.84571,1.53125 -0.63672,-1.39648 c -3.48225,-7.6293 -7.11614,-19.46566 -13.4746,-43.9668 -1.73492,-6.68525 -3.84434,-14.57883 -4.69336,-17.5625 -1.82874,-6.42658 -2.7282,-10.49775 -3.56641,-16.13672 -0.29799,-2.00481 -0.91134,-7.3958 -1.42773,-12.2832 -0.2582,-2.4437 -0.49265,-4.76443 -0.65235,-6.48242 -0.0773,-0.83134 -0.13548,-1.50487 -0.17187,-1.9961 z m -23.33985,8.78516 -3.26757,5.09375 c -19.3225,30.11946 -45.089,59.18084 -73.25391,82.61719 -1.22767,1.02156 -2.35509,1.9572 -3.18164,2.64257 -0.41327,0.34269 -0.75241,0.62205 -0.99024,0.81836 -0.11892,0.0982 -0.21221,0.17518 -0.27734,0.22852 -0.0326,0.0267 -0.0572,0.0488 -0.0742,0.0625 -0.017,0.0137 -0.0617,0.0427 -0.006,0.004 -8.4e-4,5.8e-4 -0.15178,0.16696 -0.15234,0.16796 -5.6e-4,10e-4 -0.0464,0.10796 -0.0547,0.14844 -0.0166,0.081 -0.0115,0.12742 -0.008,0.16406 0.008,0.0733 0.02,0.1069 0.0312,0.14063 0.0225,0.0675 0.0481,0.12047 0.0781,0.18359 0.06,0.12625 0.14229,0.28256 0.24805,0.47071 0.21153,0.3763 0.51169,0.87479 0.85352,1.41601 l 1.36914,2.16797 4.83007,0.19727 c 2.51414,0.10217 7.94276,0.30635 12.06836,0.45312 0,0 0.002,0 0.002,0 0.009,3.3e-4 0.0123,-3.2e-4 0.0215,0 0,0 0.002,0 0.002,0 4.12143,0.14625 8.41617,0.22472 9.67969,0.16797 l 2.28125,-0.10156 1.56641,-0.85352 1.53515,-0.83398 3.19532,-3.41211 c 14.02915,-14.97226 25.20343,-29.28218 39.01562,-49.96289 l 5.08594,-7.61524 0.3418,-1.22851 0.33789,-1.21875 0.002,-15.74219 0.004,-16.17578 -0.75586,0 -0.52735,0 z m 18.29688,0.14062 0,0.002 c -0.10128,-0.002 -0.23544,9e-4 -0.40235,0.004 -0.33382,0.006 -0.79818,0.0177 -1.35351,0.0371 -1.11064,0.0388 -2.58033,0.10135 -4.05078,0.16992 -1.47044,0.0686 -2.94213,0.14412 -4.05469,0.20899 -0.55627,0.0324 -1.02224,0.0624 -1.35742,0.0879 -0.16759,0.0127 -0.3006,0.0241 -0.40235,0.0352 -0.0509,0.006 -0.0942,0.0105 -0.13671,0.0176 -0.0213,0.004 -0.0399,0.007 -0.0723,0.0156 -0.0162,0.004 -0.0351,0.009 -0.0664,0.0215 -0.0156,0.006 -0.0345,0.0131 -0.0605,0.0274 -0.0259,0.0143 -0.10502,0.0777 -0.10547,0.0781 -4.9e-4,4.7e-4 -0.11682,0.1671 -0.11719,0.16797 -3.6e-4,8.7e-4 -0.0281,0.0791 -0.0332,0.10547 -0.0101,0.0528 -0.008,0.0814 -0.008,0.10547 1.6e-4,0.0481 0.002,0.073 0.006,0.0996 0.007,0.0532 0.0185,0.10183 0.0312,0.16015 0.0257,0.11665 0.0629,0.26749 0.11329,0.45703 0.10083,0.3791 0.25038,0.90731 0.43359,1.53711 0.36643,1.25962 0.86823,2.92643 1.38281,4.60157 0.51457,1.67514 1.04118,3.35754 1.45703,4.64453 0.20792,0.64349 0.38932,1.18725 0.52735,1.58593 0.069,0.19934 0.12585,0.36168 0.17382,0.48633 0.024,0.0623 0.0452,0.11431 0.0664,0.16211 0.0212,0.0478 0.0198,0.0718 0.10156,0.17578 0.11069,0.14085 0.23233,0.25933 0.36524,0.35743 0.13292,0.0981 0.23678,0.20898 0.53515,0.20898 9.4e-4,0 0.13827,-0.0167 0.18164,-0.0332 0.0434,-0.0165 0.0724,-0.0339 0.0957,-0.0488 0.0466,-0.03 0.0687,-0.0535 0.0879,-0.0723 0.0383,-0.0376 0.0573,-0.0629 0.0762,-0.0879 0.0376,-0.0501 0.0686,-0.0966 0.10547,-0.15625 0.0737,-0.11921 0.165,-0.27981 0.27539,-0.48047 0.22079,-0.40131 0.51814,-0.96486 0.86719,-1.64257 0.6981,-1.35543 1.60223,-3.16055 2.49414,-4.97071 0.89192,-1.81015 1.77036,-3.62428 2.41797,-5 0.32381,-0.68786 0.5891,-1.26472 0.77148,-1.68164 0.0912,-0.20845 0.16194,-0.37598 0.21094,-0.50586 0.0245,-0.0649 0.0439,-0.11856 0.0605,-0.17968 0.008,-0.0306 0.0156,-0.0617 0.0215,-0.11915 0.003,-0.0287 0.008,-0.0626 0,-0.125 -0.004,-0.0312 -0.012,-0.0709 -0.0312,-0.12109 -0.0194,-0.0502 -0.11265,-0.17515 -0.11328,-0.17578 -3.8e-4,-3.9e-4 -0.1007,-0.0797 -0.13281,-0.0957 -0.0321,-0.016 -0.0558,-0.0234 -0.0742,-0.0293 -0.0367,-0.0118 -0.0566,-0.0145 -0.0742,-0.0176 -0.0353,-0.006 -0.0565,-0.008 -0.0781,-0.01 -0.0433,-0.003 -0.0841,-0.007 -0.13476,-0.008 z m -0.58203,1.00977 c -0.17523,0.3997 -0.43127,0.95989 -0.74805,1.63281 -0.64341,1.3668 -1.52217,3.17823 -2.41211,4.98438 -0.88993,1.80614 -1.79273,3.60642 -2.48633,4.95312 -0.3468,0.67335 -0.64116,1.23513 -0.85351,1.6211 -0.0298,0.0541 -0.0439,0.074 -0.0703,0.12109 -0.004,-0.0102 -0.005,-0.014 -0.01,-0.0254 -0.0407,-0.10565 -0.0952,-0.25981 -0.16211,-0.45313 -0.13386,-0.38664 -0.3128,-0.92857 -0.51953,-1.56836 -0.41345,-1.27958 -0.93965,-2.95732 -1.45313,-4.6289 -0.51348,-1.67159 -1.01479,-3.33623 -1.3789,-4.58789 -0.18205,-0.62583 -0.33073,-1.14893 -0.42774,-1.51368 -0.005,-0.0179 -0.005,-0.0238 -0.01,-0.041 0.3228,-0.0243 0.76954,-0.0524 1.31054,-0.084 1.10618,-0.0645 2.57545,-0.13858 4.04297,-0.20703 1.46751,-0.0684 2.93485,-0.13132 4.03906,-0.16992 0.47058,-0.0164 0.8297,-0.0265 1.13868,-0.0332 z m 2.09961,0.0996 -3.88282,7.75586 -3.49414,6.97851 0.26953,0.69922 0,0.002 0.31446,0.82032 0.73242,-0.0117 c 0.30636,-0.004 0.6735,-0.0843 1.16797,-0.19922 0.49448,-0.1149 1.08017,-0.26958 1.67187,-0.43945 1.1834,-0.33974 2.33653,-0.7084 2.90625,-1.00391 l 1.10352,-0.57226 0.57226,-1.42774 0.5293,-1.32422 0.16992,-1.9043 0.16797,-1.90429 -0.46094,-2.17383 c -0.25112,-1.18091 -0.6338,-2.57356 -0.91015,-3.23828 l -0.85742,-2.05664 z m -19.53125,0.16211 -0.004,14.76367 -0.002,15.60742 -0.30274,1.08594 -0.29883,1.07422 -4.99609,7.48242 c -13.79219,20.65078 -24.92111,34.90036 -38.91406,49.83398 l -3.08594,3.29297 -1.39258,0.75977 -1.36328,0.74219 -2.05078,0.0918 c -1.11506,0.0501 -5.50511,-0.0234 -9.62305,-0.16992 0,0 -0.002,0 -0.002,0 -0.007,-2.6e-4 -0.0141,2.6e-4 -0.0215,0 0,0 -0.002,0 -0.002,0 -4.12096,-0.14665 -9.5343,-0.35133 -12.03906,-0.45312 l -4.30664,-0.17383 -1.08789,-1.72461 c -0.33434,-0.52938 -0.62925,-1.01923 -0.82813,-1.37305 -0.0549,-0.0976 -0.0803,-0.15272 -0.11914,-0.22656 0.0359,-0.0296 0.0574,-0.0472 0.0996,-0.082 0.23888,-0.19718 0.57859,-0.47736 0.99219,-0.82032 0.82722,-0.68592 1.9536,-1.62265 3.18164,-2.64453 28.2468,-23.50449 54.07424,-52.6303 73.45703,-82.84375 l 2.70899,-4.22265 z m 3,0.98828 0,6.51367 0,6.2207 0.88281,0.88282 0.88672,0.88867 1.50195,-0.0352 c 0.74695,-0.0173 1.56766,-0.0966 2.05274,-0.24805 l 1.09765,-0.34374 -2.11523,-6.99805 -2.07813,-6.88086 -1.04883,0 -1.17968,0 z m 1,1 0.17968,0 0.30664,0 1.86329,6.16992 1.82812,6.05078 -0.15234,0.0469 c -0.20228,0.0632 -1.10483,0.18757 -1.77539,0.20312 l -1.07618,0.0254 -0.58398,-0.58594 -0.58984,-0.58984 0,-5.80664 0,-5.51367 z m 15.44726,0.25195 0.0176,0.041 c 0.20383,0.49028 0.61537,1.93146 0.85547,3.06054 l 0.43164,2.02735 -0.15625,1.75586 -0.15625,1.75586 -0.47656,1.18945 -0.4336,1.08203 -0.77148,0.40235 c -0.34249,0.17764 -1.56598,0.59761 -2.72266,0.92968 -0.57834,0.16604 -1.15227,0.31639 -1.62304,0.42578 -0.47077,0.1094 -0.87353,0.17277 -0.95313,0.17383 l -0.0371,0 -0.0644,-0.16992 -0.11133,-0.28906 3.29687,-6.58203 2.9043,-5.80274 z m 5.25781,16.1836 c -3.1e-4,-5e-5 -0.36297,0.0818 -0.36328,0.082 -3.1e-4,2.1e-4 -0.13641,0.1421 -0.13672,0.14257 -3.1e-4,4.9e-4 -0.0346,0.0598 -0.043,0.0801 -0.0336,0.0811 -0.0293,0.0997 -0.0332,0.12305 -0.008,0.0467 -0.0108,0.0755 -0.0137,0.11328 -0.006,0.0756 -0.009,0.17287 -0.0137,0.30078 -0.009,0.25584 -0.0168,0.62947 -0.0234,1.11328 -0.0133,0.96764 -0.0236,2.37347 -0.0293,4.11329 -0.0114,3.47963 -0.005,8.29748 0.0176,13.61523 l 0.084,19.42773 4.72265,11.78907 c 7.13179,17.7973 9.22764,22.44611 11.95508,26.83984 l -0.0879,0 0.49023,0.76758 c 0.25329,0.3968 0.49337,0.7587 0.67969,1.02539 0.0932,0.13334 0.17196,0.24118 0.23828,0.32617 0.0332,0.0425 0.0619,0.0786 0.0977,0.11719 0.0179,0.0193 0.0358,0.0386 0.0723,0.0684 0.0183,0.0149 0.0397,0.0334 0.082,0.0566 0.0212,0.0116 0.0477,0.0244 0.0859,0.0371 0.0191,0.006 0.0679,0.0175 0.0684,0.0176 4.2e-4,7e-5 0.0935,0.008 0.0937,0.008 3.7e-4,0 0.15188,-0.0233 0.15235,-0.0234 4.7e-4,-1.5e-4 0.06,-0.0228 0.0801,-0.0332 0.0401,-0.0209 0.0614,-0.036 0.0781,-0.0488 0.0334,-0.0256 0.0487,-0.0408 0.0625,-0.0547 0.0276,-0.0277 0.0442,-0.0502 0.0644,-0.0742 0.0403,-0.0481 0.0856,-0.10531 0.14063,-0.17773 0.10998,-0.14483 0.25753,-0.3453 0.43555,-0.59375 0.35604,-0.4969 0.83214,-1.17987 1.3457,-1.92969 l 2.01172,-2.93555 -1.89844,-4.80468 c -5.19113,-13.13754 -8.42338,-23.95786 -15.66602,-52.45899 -1.15413,-4.54168 -2.22038,-8.68619 -3.00781,-11.70703 -0.39372,-1.51042 -0.71604,-2.74118 -0.94726,-3.59961 -0.11561,-0.42921 -0.20849,-0.76514 -0.27539,-1 -0.0335,-0.11743 -0.0602,-0.20786 -0.082,-0.27734 -0.0109,-0.0347 -0.0204,-0.0639 -0.0312,-0.0937 -0.005,-0.0149 -0.0113,-0.0298 -0.0215,-0.0527 -0.005,-0.0115 -0.0114,-0.0234 -0.0234,-0.0449 -0.006,-0.0107 -0.0134,-0.0255 -0.0254,-0.043 -0.012,-0.0175 -0.0583,-0.07 -0.0586,-0.0703 -3.1e-4,-3.1e-4 -0.27704,-0.14058 -0.27735,-0.14062 z m -11.48437,2.56054 -0.38281,0.61914 -0.3418,0.55078 2.54883,8.00196 2.58984,8.13281 1.0293,0 0.98437,0 0.84375,-1.86914 0.75782,-1.67383 0,-4.75781 0,-4.76953 -0.6543,-1.29688 -0.66797,-1.32617 -1.04297,-0.59961 -1.00976,-0.58008 -2.22657,-0.20703 -2.42773,-0.22461 z m -4.18945,0.10352 -1.19922,1.05469 -1.13477,0.99414 -1.0957,2.23632 -1.07422,2.19141 -0.61328,2.42383 -0.61524,2.43359 0,2.23047 0,2.34766 0.64258,0.79101 0.66211,0.81836 4.55469,0.41211 c 2.39572,0.21701 4.96633,0.41078 5.80469,0.43164 l 1.93554,0.0488 0,-0.75195 c 0,-0.11937 -0.013,-0.14003 -0.0254,-0.19727 -0.0123,-0.0572 -0.0287,-0.1223 -0.0488,-0.19922 -0.0402,-0.15383 -0.0961,-0.35595 -0.16797,-0.60156 -0.14381,-0.49122 -0.34806,-1.15816 -0.59375,-1.94531 -0.49137,-1.5743 -1.14828,-3.62459 -1.81446,-5.66992 -0.66619,-2.04534 -1.34212,-4.08433 -1.86914,-5.63672 -0.26351,-0.7762 -0.4893,-1.43142 -0.66015,-1.90625 -0.0854,-0.23742 -0.15593,-0.42982 -0.21289,-0.57422 -0.0285,-0.0722 -0.0545,-0.13113 -0.0781,-0.1836 -0.0236,-0.0525 -0.0122,-0.0683 -0.10937,-0.1875 l -0.45508,-0.56054 -0.93946,0 -0.89257,0 z m 4.71484,0.94922 1.80859,0.16797 2.01172,0.1875 0.81836,0.4707 0.78516,0.45117 0.5332,1.05664 0.54688,1.08594 0,4.53125 0,4.54297 -0.66797,1.47656 -0.58008,1.28125 -0.33789,0 -0.29688,0 -2.36914,-7.43555 -2.4082,-7.56445 0.0977,-0.16016 0.0586,-0.0918 z m -4.33789,0.0508 0.51562,0 0.46485,0 0.15625,0.1914 c -0.0794,-0.0974 -0.042,-0.0614 -0.0293,-0.0332 0.0127,0.0282 0.0335,0.077 0.0586,0.14063 0.0502,0.12731 0.11959,0.31472 0.20312,0.54687 0.16706,0.46431 0.39187,1.11371 0.6543,1.88672 0.52486,1.54603 1.20001,3.58266 1.86523,5.625 0.66521,2.04234 1.32116,4.0922 1.81055,5.66016 0.2447,0.78398 0.44713,1.44693 0.58789,1.92773 0.0543,0.18542 0.0908,0.31576 0.125,0.44141 l -0.83399,-0.0215 c -0.72914,-0.0181 -3.3522,-0.21178 -5.73632,-0.42773 l -4.13477,-0.375 -0.39844,-0.48828 -0.41797,-0.51758 0,-1.99219 0,-2.10547 0.58594,-2.3125 0.58594,-2.32226 1.0293,-2.09961 1.00781,-2.05469 0.98437,-0.86328 0.91602,-0.80664 z m 15.65625,0.33008 c 0.14408,0.54719 0.24292,0.916 0.41601,1.58007 0.78666,3.01786 1.85215,7.16114 3.00586,11.70118 7.24526,28.51141 10.49707,39.39985 15.70508,52.58007 l 1.70313,4.31055 -1.71094,2.49805 c -0.51024,0.74498 -0.98409,1.42183 -1.33398,1.91015 -0.0817,0.11409 -0.13029,0.17589 -0.19727,0.26758 -0.1658,-0.24079 -0.36045,-0.53008 -0.57812,-0.87109 -2.88358,-4.51726 -4.80635,-8.81222 -12.27149,-27.44141 l -4.6543,-11.61133 -0.082,-19.23828 c -0.023,-5.31569 -0.0289,-10.13165 -0.0176,-13.60742 0.003,-0.88011 0.0108,-1.38368 0.0156,-2.07812 z m -24.36523,11.53906 -5.15821,7.62695 c -13.2769,19.62649 -25.16272,34.79413 -38.24609,48.8125 l -4.83594,5.18164 1.5625,0.26172 c 0.081,0.0136 0.12042,0.0152 0.21875,0.0234 0.0983,0.008 0.22909,0.0172 0.39453,0.0293 0.33087,0.0243 0.79515,0.0567 1.37891,0.0957 1.16753,0.078 2.81367,0.18471 4.8164,0.31055 3.88253,0.24394 9.17946,0.56623 14.86915,0.90625 l 0.4707,0.0293 c 5.899,0.35204 11.40412,0.67536 15.52344,0.91406 4.11932,0.2387 6.79542,0.39021 7.21679,0.40235 l 1.78907,0.0527 0,-31.76562 0,-32.88086 z m -1,3.26367 0,29.61719 0,30.73633 -0.75977,-0.0215 c -0.27988,-0.008 -3.069,-0.16369 -7.1875,-0.40234 -3.99362,-0.23142 -9.35706,-0.54707 -15.05273,-0.88672 l -0.47071,-0.0273 c -5.89831,-0.352 -11.33203,-0.68398 -15.33594,-0.93555 -2.00196,-0.12579 -3.64737,-0.23269 -4.8125,-0.31055 -0.58257,-0.0389 -1.04426,-0.0697 -1.37109,-0.0937 -0.097,-0.007 -0.15613,-0.0119 -0.22852,-0.0176 l 3.54493,-3.79882 c 13.12277,-14.06059 25.04563,-29.2777 38.34375,-48.93555 l 3.33008,-4.92383 z m 14.50195,9.29492 -3.2168,0.13672 -3.26562,0.14063 -1.36719,0.70312 -1.41016,0.72656 -0.54883,1.0625 -0.52343,1.00977 -0.15625,2.10351 -0.1543,2.03321 0.25586,5.48242 0.26172,5.63281 0.67383,0.7461 0.69922,0.77148 3.55078,0.0898 c 1.85109,0.0468 4.76741,0.0334 6.51757,-0.0293 l 3.32422,-0.11914 0.69922,-0.60157 c 0.4349,-0.37406 0.84318,-1.00402 1.09375,-1.5957 l 0.42969,-1.01562 0.0645,-6.41602 0.0664,-6.45312 -0.6582,-1.12696 -0.64649,-1.10742 -1.07226,-0.72266 -1.0586,-0.71289 -1.79687,-0.37304 -1.76172,-0.36524 z m -0.082,1.00391 1.64062,0.33984 1.60547,0.33399 0.89453,0.60351 0.88281,0.59375 0.53125,0.91016 0.51954,0.88867 -0.0625,6.17774 -0.0645,6.21679 -0.35351,0.83399 c -0.18035,0.42586 -0.63414,1.0667 -0.82227,1.22851 l -0.43359,0.37305 -2.97461,0.10547 c -1.70862,0.0612 -4.61256,0.0747 -6.4336,0.0293 -0.007,-1.6e-4 -0.0168,1.7e-4 -0.0234,0 l -3.12305,-0.0801 -0.41016,-0.45313 -0.43554,-0.47851 -0.24414,-5.27539 -0.25196,-5.42188 0.14844,-1.97266 0.14258,-1.90039 0.42969,-0.82812 0.40039,-0.7793 1.12695,-0.58008 1.17187,-0.60351 3.04493,-0.12891 3.09375,-0.13281 z m 11.59375,16.63281 -0.96289,0.18164 -0.0723,8.70117 c -0.0397,4.79429 0.0281,12.7423 0.15039,17.6836 l 0.22656,9.21094 0.96289,0.71874 0.8711,0.64844 5.36133,0.72071 0.5664,0.0762 0,-0.004 c 1.21744,0.16162 2.42814,0.31936 3.36133,0.43359 1.09039,0.13347 1.8214,0.22018 2.11914,0.23243 l 1.00391,0.041 0.90234,-0.99804 c 0.41973,-0.4641 0.92231,-1.05395 1.1582,-1.36719 l 0.58204,-0.77344 -1.70704,-2.89258 c -3.40081,-5.7577 -6.34809,-12.21522 -11.99804,-26.3125 l -2.52539,-6.30078 z m 0.0156,2.72656 1.58203,3.94532 c 5.65537,14.11082 8.62575,20.62733 12.06446,26.44921 l 1.36718,2.31641 -0.17968,0.24024 c -0.18435,0.24479 -0.6986,0.85542 -1.09961,1.29882 l -0.58985,0.65039 -0.53515,-0.0215 c -0.12515,-0.005 -0.95382,-0.0937 -2.03907,-0.22656 -1.08525,-0.13285 -2.47877,-0.31083 -3.91601,-0.50391 l -0.56641,-0.0762 -4.53711,-0.61133 -0.66406,-0.49414 -0.57227,-0.42578 -0.21484,-8.72461 c -0.12189,-4.92384 -0.18992,-12.87663 -0.15039,-17.65234 l 0.0508,-6.16407 z m -16.19726,8.35938 -1.60352,0.80273 -1.61328,0.8086 -0.97461,1.4082 -0.99023,1.43359 0.0176,8.67969 0.0195,8.6875 0.71093,0.95508 0.73242,0.98242 1.51368,0.26758 c 0.59748,0.10544 2.47909,0.30395 4.19531,0.48437 l -0.0352,0.0234 1.39844,0.13477 c 2.31837,0.22328 4.97366,0.4215 5.98438,0.44336 l 2.26562,0.0508 -0.10938,-10.94141 -0.10546,-10.52929 -0.53907,-1.20118 -0.56445,-1.25781 -1.14648,-0.62695 -1.11133,-0.60547 -4.02735,0 -4.01757,0 z m 0.23632,1 3.78125,0 3.77344,0 0.88672,0.48437 0.84961,0.46485 0.42773,0.95117 0.45313,1.00976 0.10351,10.32032 0.0977,9.9082 -1.23242,-0.0254 c -0.91294,-0.0197 -3.60853,-0.21973 -5.91016,-0.44141 -2.30324,-0.22183 -4.82186,-0.51462 -5.48047,-0.63086 l -1.12304,-0.19921 -0.49414,-0.66407 -0.51563,-0.68945 -0.0176,-8.35742 -0.0176,-8.36719 0.8125,-1.17578 0.83007,-1.19727 1.38282,-0.69336 1.39257,-0.69726 z m 10.05665,30.65039 c -0.20239,0 -0.20085,0.0374 -0.24024,0.0547 -0.0394,0.0172 -0.0714,0.0333 -0.10742,0.0527 -0.072,0.0388 -0.15413,0.0876 -0.25391,0.14844 -0.19957,0.12174 -0.46452,0.28995 -0.77343,0.49219 -0.61785,0.40447 -1.41395,0.94327 -2.20508,1.48632 -0.79113,0.54304 -1.57457,1.0894 -2.16407,1.51368 -0.29475,0.21213 -0.54038,0.39348 -0.71875,0.53125 -0.0892,0.0689 -0.16089,0.12546 -0.2207,0.17773 -0.0299,0.0261 -0.0568,0.0505 -0.0898,0.0859 -0.0165,0.0177 -0.034,0.0369 -0.0605,0.0762 -0.0133,0.0196 -0.0288,0.0447 -0.0469,0.0859 -0.009,0.0206 -0.019,0.0452 -0.0274,0.0781 -0.008,0.0329 -0.0176,0.12635 -0.0176,0.12696 0,5e-4 0.008,0.0829 0.0137,0.10937 0.006,0.0265 0.012,0.045 0.0176,0.0606 0.0111,0.0312 0.0198,0.0494 0.0274,0.0644 0.0153,0.0301 0.0249,0.0466 0.0351,0.0625 0.0205,0.0319 0.0403,0.0581 0.0625,0.0879 0.0443,0.0596 0.10164,0.13124 0.17383,0.2207 0.14437,0.17894 0.34661,0.42409 0.59766,0.72071 0.50212,0.59324 1.19209,1.39339 1.95117,2.25781 0.75855,0.86383 1.45646,1.64792 1.9707,2.21875 0.25712,0.28542 0.46918,0.51662 0.6211,0.67969 0.076,0.0815 0.13545,0.14662 0.18359,0.19531 0.0241,0.0244 0.0441,0.0444 0.0684,0.0664 0.0121,0.011 0.0237,0.022 0.0488,0.041 0.0125,0.009 0.0281,0.0207 0.0605,0.0391 0.0162,0.009 0.0699,0.033 0.0703,0.0332 4.6e-4,1.7e-4 0.17742,0.0312 0.17773,0.0312 0.18407,0 0.1566,-0.0206 0.20117,-0.0332 0.0446,-0.0126 0.0923,-0.0268 0.14649,-0.0449 0.10833,-0.0361 0.24005,-0.0842 0.37695,-0.13672 l 0.79688,-0.30468 0,-5.5625 0,-5.7168 -0.67578,0 z m 6.33984,0.62109 c -0.10429,0.002 -0.1896,0.006 -0.26758,0.0137 -0.039,0.004 -0.0747,0.007 -0.12305,0.0176 -0.0483,0.0103 -0.0979,-0.0369 -0.28125,0.14649 -0.13323,0.13325 -0.11835,0.17515 -0.13281,0.21679 -0.0145,0.0417 -0.0214,0.0753 -0.0293,0.10938 -0.0158,0.0681 -0.0291,0.1402 -0.043,0.22852 -0.0276,0.1766 -0.0574,0.40963 -0.0879,0.68945 -0.061,0.55964 -0.125,1.30553 -0.18165,2.11133 l -0.002,0.0176 -0.24023,3.42774 0.89648,0 c 0.17595,0 0.23064,-0.0387 0.30469,-0.0703 0.074,-0.0316 0.14643,-0.0686 0.22656,-0.11328 0.16024,-0.0893 0.3499,-0.21033 0.57227,-0.35743 0.44473,-0.2942 1.01274,-0.69671 1.63476,-1.1582 1.24404,-0.92298 2.6991,-2.07194 3.76758,-3.00586 l 2.11523,-1.84961 -4.75,-0.29687 c -0.97815,-0.0611 -1.88151,-0.10176 -2.55468,-0.11914 -0.33658,-0.009 -0.61562,-0.0118 -0.82422,-0.008 z m -26.46094,0.38672 -6.72266,0.24414 c -14.81065,0.53773 -46.88185,2.40935 -53.36523,3.1211 l -2.36523,0.25976 0.58593,0.94727 c 0.10532,0.17038 0.13594,0.16148 0.20313,0.21875 0.0672,0.0573 0.14853,0.12298 0.24805,0.19922 0.19904,0.15248 0.46821,0.34674 0.79101,0.57617 0.64559,0.45886 1.50783,1.051 2.43555,1.66797 l 3.38086,2.25 3.77539,1.95312 3.77344,1.95508 3.58203,1.4043 3.58398,1.40625 3.7168,1.01758 3.71679,1.01953 3.72461,0.61523 c 2.04005,0.3371 4.22028,0.66738 4.92969,0.74219 0.002,2.3e-4 0.0134,-2.3e-4 0.0156,0 0.4317,0.0445 1.51352,0.0599 3.08593,0.0684 1.58036,0.008 3.59122,0.002 5.65625,-0.0195 l 7.54102,-0.0801 3.64063,-0.64844 c 0.99259,-0.17637 1.93774,-0.35045 2.6621,-0.49219 0.36218,-0.0709 0.66961,-0.13351 0.90235,-0.18359 0.23274,-0.0501 0.34159,-0.0681 0.49609,-0.125 l 0.70313,-0.25781 -0.006,-8.53321 -0.004,-8.34179 -0.31055,-0.44532 -0.37695,-0.53906 z m 5.91797,0.19141 -0.48828,0.91406 -0.40235,0.75 -0.16015,3.96484 0,0.0195 -0.002,0 0,0.002 0.002,0 -0.17774,4.36719 0.80665,-0.0274 c 0.17952,-0.006 0.20833,-0.0469 0.2539,-0.0703 0.0456,-0.0234 0.0811,-0.0452 0.11914,-0.0703 0.076,-0.0503 0.15836,-0.11163 0.25586,-0.1875 0.195,-0.15174 0.44594,-0.3604 0.74414,-0.61719 0.5964,-0.51358 1.37514,-1.21547 2.19922,-1.98633 l 3.32031,-3.10547 -1.28125,-1.5957 -1.07422,-1.33594 -1.29296,-0.51758 c -0.34369,-0.13751 -0.71651,-0.25931 -1.05469,-0.3496 -0.33817,-0.0903 -0.61485,-0.1543 -0.88477,-0.1543 l -0.88281,0 z m 13.87891,0.0645 0,4.45313 0,4.875 -0.1543,0.0586 c -0.0837,0.0321 -0.1542,0.0565 -0.22656,0.082 -0.008,-0.009 -0.0107,-0.012 -0.0195,-0.0215 -0.14484,-0.15547 -0.35439,-0.38491 -0.60938,-0.66797 -0.51,-0.56612 -1.2047,-1.34779 -1.96094,-2.20899 -0.75574,-0.8606 -1.44316,-1.65778 -1.93945,-2.24414 -0.21346,-0.2522 -0.37009,-0.4419 -0.50195,-0.60351 0.15581,-0.11803 0.3345,-0.25184 0.57617,-0.42578 0.57956,-0.41712 1.35801,-0.96208 2.14453,-1.50196 0.78652,-0.53987 1.58151,-1.07467 2.18945,-1.47265 0.20519,-0.13433 0.34764,-0.22492 0.50196,-0.32227 z m 6.76172,0.35742 c 0.17853,-0.002 0.40563,10e-6 0.70117,0.008 0.65528,0.0169 1.54971,0.0567 2.51757,0.11718 l 2.32422,0.14453 -0.28515,0.25 c -1.03542,0.90504 -2.48048,2.04653 -3.70508,2.95508 -0.61229,0.45428 -1.17007,0.85122 -1.58984,1.12891 -0.15171,0.10036 -0.25842,0.16346 -0.36719,0.22851 l 0.15625,-2.22851 c 4.8e-4,-0.007 9.5e-4,-0.0108 0.002,-0.0176 l 0,-0.006 c 0.0555,-0.78458 0.1194,-1.51569 0.17774,-2.05078 0.0243,-0.22294 0.0478,-0.38573 0.0684,-0.5293 z m -27.06641,0.40625 0.0644,0.0918 0.13086,0.1875 0.004,8.02734 0.006,7.83594 -0.0469,0.0176 c 0.0514,-0.0189 -0.1388,0.0361 -0.36133,0.084 -0.22254,0.0479 -0.52452,0.10958 -0.88281,0.17969 -0.71658,0.14022 -1.65712,0.31478 -2.64453,0.49024 l -3.55859,0.63281 -7.45899,0.0801 c -2.05997,0.0219 -4.0692,0.028 -5.64258,0.0195 -1.57339,-0.008 -2.76719,-0.04 -3,-0.0645 -0.6106,-0.0644 -2.84122,-0.397 -4.87109,-0.73242 l -3.67578,-0.60742 -3.66602,-1.00586 -3.66406,-1.00391 -3.53516,-1.38671 -3.53515,-1.38477 -3.72656,-1.92969 -3.72461,-1.92968 -3.33789,-2.21875 c -0.92016,-0.61194 -1.77648,-1.20002 -2.41016,-1.6504 -0.1901,-0.13512 -0.31178,-0.22702 -0.45703,-0.33398 l 0.52539,-0.0586 c 6.31473,-0.69324 38.51438,-2.57868 53.29297,-3.11524 l 6.17578,-0.22461 z m 7.02539,0.17188 0.2832,0 c 0.051,0 0.3293,0.0416 0.62696,0.12109 0.29766,0.0795 0.64123,0.1924 0.9414,0.3125 l 1.04883,0.41992 0.9082,1.13086 0.70117,0.8711 -2.64257,2.47265 c -0.81548,0.76281 -1.58656,1.45832 -2.16797,1.95899 -0.19499,0.16791 -0.32934,0.27408 -0.47461,0.39258 l 0.12305,-3.00977 0,-0.0195 0,-0.002 0.15234,-3.71485 0.29297,-0.54687 0.20703,-0.38672 z m 6.97266,4.50586 c -0.0556,-0.0152 -0.13525,-0.0197 -0.25977,0.0117 -0.16836,0.0425 -0.15542,0.0648 -0.1875,0.0859 -0.0321,0.0212 -0.0601,0.0424 -0.0918,0.0664 -0.0634,0.048 -0.13872,0.10961 -0.23047,0.18555 -0.18351,0.15187 -0.42986,0.36149 -0.7246,0.61914 -0.58948,0.5153 -1.3734,1.21719 -2.21094,1.98242 l -3.98828,3.64258 6.09765,0 4.95313,0 0.68945,-0.42969 1.06641,-0.66602 -2.53125,-2.91015 c -0.59553,-0.68442 -1.15849,-1.30015 -1.5918,-1.74805 -0.21665,-0.22395 -0.39979,-0.40601 -0.54687,-0.53906 -0.0735,-0.0665 -0.13706,-0.12071 -0.20508,-0.16992 -0.034,-0.0246 -0.0671,-0.0486 -0.12305,-0.0762 -0.0279,-0.0138 -0.0596,-0.0395 -0.11523,-0.0547 z m -0.14258,1.12695 c 0.1127,0.1058 0.24199,0.23033 0.41406,0.4082 0.41528,0.42927 0.96888,1.03574 1.55469,1.70899 l 1.76367,2.02539 -0.0723,0.0449 -0.44726,0.2793 -4.66602,0 -3.51953,0 2.08594,-1.9043 c 0.83293,-0.76102 1.6119,-1.4585 2.19336,-1.9668 0.28681,-0.25071 0.5227,-0.45427 0.69336,-0.5957 z m -7.82227,6.55664 1.35352,1.44141 0.13672,0.14453 0.91797,0.97656 1.70312,-0.66211 c 0.76342,-0.29641 1.59634,-0.61617 1.83398,-0.70508 l 0.45118,-0.16796 -0.17188,-0.96876 -2.52539,-0.0234 -3.69922,-0.0352 z m 2.33203,1.02344 1.25,0.01 -0.9082,0.35352 -0.32031,-0.3418 -0.0215,-0.0215 z"
       style="color:#000000;font-style:normal;font-variant:normal;font-weight:normal;font-stretch:normal;font-size:medium;line-height:normal;font-family:sans-serif;text-indent:0;text-align:start;text-decoration:none;text-decoration-line:none;text-decoration-style:solid;text-decoration-color:#000000;letter-spacing:normal;word-spacing:normal;text-transform:none;direction:ltr;block-progression:tb;writing-mode:lr-tb;baseline-shift:baseline;text-anchor:start;white-space:normal;clip-rule:nonzero;display:inline;overflow:visible;visibility:visible;opacity:1;isolation:auto;mix-blend-mode:normal;color-interpolation:sRGB;color-interpolation-filters:linearRGB;solid-color:#000000;solid-opacity:1;fill:#262262;fill-opacity:1;fill-rule:nonzero;stroke:none;stroke-width:1;stroke-linecap:butt;stroke-linejoin:miter;stroke-miterlimit:4;stroke-dasharray:none;stroke-dashoffset:0;stroke-opacity:1;color-rendering:auto;image-rendering:auto;shape-rendering:auto;text-rendering:auto;enable-background:accumulate" />
  </g>
</svg>
