<?xml version="1.0" standalone="no"?>
<!DOCTYPE svg PUBLIC "-//W3C//DTD SVG 20010904//EN"
 "http://www.w3.org/TR/2001/REC-SVG-20010904/DTD/svg10.dtd">
<svg version="1.0" xmlns="http://www.w3.org/2000/svg"
 width="512.000000pt" height="512.000000pt" viewBox="0 0 512.000000 512.000000"
 preserveAspectRatio="xMidYMid meet">
<metadata>
Created by potrace 1.11, written by Peter Selinger 2001-2013
</metadata>
<g transform="translate(0.000000,512.000000) scale(0.100000,-0.100000)"
fill="#000000" stroke="none">
<path d="M2438 5114 c-2 -1 -41 -4 -88 -5 -46 -1 -100 -5 -120 -10 -19 -4 -53
-10 -75 -13 -213 -30 -498 -118 -700 -217 -204 -99 -301 -158 -454 -274 -433
-331 -721 -739 -894 -1270 -43 -132 -49 -155 -63 -230 -3 -16 -9 -48 -14 -70
-22 -98 -25 -159 -25 -465 0 -338 2 -369 36 -534 40 -191 102 -374 195 -575
56 -119 79 -152 102 -144 16 6 155 109 183 135 8 7 39 33 69 58 30 25 57 47
60 51 3 3 41 36 85 74 181 156 572 537 821 801 155 164 292 315 394 434 30 35
62 71 70 80 28 29 306 365 376 455 204 261 359 480 549 780 31 50 185 338 227
425 25 52 29 53 67 16 50 -48 96 -57 248 -51 288 12 325 22 362 93 15 28 20
32 21 17 1 -11 3 -28 5 -38 2 -9 6 -52 10 -95 3 -42 8 -88 10 -102 2 -14 6
-52 10 -85 3 -33 8 -76 10 -95 2 -19 7 -62 10 -95 11 -111 46 -336 66 -425 6
-25 12 -53 14 -64 8 -38 57 -225 90 -341 18 -66 50 -183 70 -260 269 -1039
406 -1489 539 -1780 l37 -79 20 33 c109 180 247 528 290 731 55 266 62 326 63
600 1 156 -9 257 -50 489 -11 66 -75 288 -111 386 -76 206 -223 471 -374 672
-71 94 -307 334 -411 418 -211 169 -539 353 -768 429 -112 37 -319 91 -385
101 -23 3 -50 7 -60 9 -11 2 -42 7 -70 10 -27 4 -66 9 -85 12 -38 6 -357 13
-362 8z m302 -38 c125 -14 211 -26 345 -51 160 -30 381 -107 568 -198 92 -44
173 -87 178 -93 7 -9 4 -24 -10 -51 -29 -58 -68 -71 -241 -79 -80 -3 -158 -7
-175 -8 -56 -4 -112 18 -160 62 -35 31 -50 40 -60 32 -7 -5 -52 -88 -100 -183
-102 -201 -174 -323 -327 -554 -89 -136 -308 -439 -353 -489 -5 -6 -23 -29
-40 -50 -57 -73 -149 -189 -155 -194 -3 -3 -39 -45 -80 -95 -41 -49 -77 -92
-80 -95 -3 -3 -18 -21 -34 -40 -195 -239 -665 -735 -1012 -1070 -261 -251
-636 -570 -671 -570 -9 0 -113 208 -113 225 0 4 -7 21 -15 38 -64 141 -137
410 -160 597 -4 30 -10 75 -14 100 -8 55 -7 449 2 505 4 22 9 60 12 85 33 263
147 611 280 855 63 117 197 318 259 390 28 33 62 73 76 90 97 119 389 367 539
458 149 91 380 200 521 247 271 90 466 128 705 137 83 3 151 6 152 7 4 4 93
-1 163 -8z m1349 -517 c129 -97 357 -318 448 -435 267 -344 451 -769 513
-1184 6 -41 13 -86 15 -99 6 -33 18 -199 18 -236 0 -65 -13 -322 -18 -350 -7
-42 -14 -83 -21 -130 -30 -205 -124 -486 -236 -710 -27 -55 -53 -104 -58 -109
-9 -9 -18 9 -81 165 -82 205 -225 680 -354 1174 -93 354 -185 702 -220 825
-63 226 -102 424 -129 655 -4 28 -8 66 -11 85 -4 36 -12 106 -20 195 -3 28 -7
68 -10 90 -2 22 -7 72 -11 110 -3 39 -9 74 -12 79 -10 18 63 -31 187 -125z"/>
<path d="M2947 4143 c-291 -443 -559 -801 -896 -1198 -143 -169 -144 -169
-321 -365 -118 -130 -636 -651 -751 -755 -131 -119 -155 -141 -234 -210 -44
-39 -82 -72 -85 -75 -4 -4 -302 -253 -320 -267 -6 -5 49 -106 75 -138 19 -22
28 -24 140 -29 267 -12 529 -19 690 -20 l170 0 57 32 c31 18 74 52 94 75 21
23 83 92 139 152 439 475 775 909 1249 1613 98 144 182 277 188 295 6 20 11
237 12 585 l1 552 -22 0 c-19 0 -53 -46 -186 -247z m162 -867 c-17 -61 -383
-602 -653 -966 -113 -153 -349 -456 -365 -470 -4 -3 -26 -30 -51 -60 -115
-140 -327 -378 -496 -556 -27 -29 -70 -64 -96 -78 -45 -26 -51 -27 -210 -26
-89 0 -201 2 -248 4 -47 3 -166 7 -265 11 -310 11 -277 2 -324 86 l-21 37 117
98 c65 54 129 108 143 120 85 73 216 188 220 193 3 3 52 49 110 101 81 73 287
271 424 406 575 571 1208 1356 1641 2035 l80 125 3 -510 c2 -361 0 -523 -9
-550z"/>
<path d="M3597 4384 c-1 -1 -60 -4 -130 -8 -71 -3 -133 -8 -138 -12 -19 -11
-17 -20 88 -351 41 -131 53 -153 84 -153 14 0 259 499 252 515 -4 11 -24 14
-80 12 -41 -1 -75 -3 -76 -3z m113 -38 c0 -12 -215 -436 -221 -436 -3 0 -13
26 -22 58 -10 31 -35 114 -56 184 -22 70 -42 140 -46 156 l-6 29 63 2 c34 1
64 3 65 5 5 5 223 7 223 2z"/>
<path d="M3660 4101 c-66 -133 -120 -250 -120 -260 0 -11 7 -26 15 -34 17 -18
58 -11 177 30 l77 26 23 56 c34 84 32 207 -6 324 -16 48 -32 90 -37 93 -5 2
-63 -103 -129 -235z m146 87 c31 -135 11 -274 -45 -302 -41 -21 -170 -58 -181
-51 -8 5 193 425 204 425 3 0 12 -33 22 -72z"/>
<path d="M3220 4091 l0 -219 35 -30 c29 -26 40 -30 72 -26 83 11 103 15 107
23 3 4 -17 82 -45 172 -27 90 -59 194 -70 232 l-20 67 -39 0 -40 0 0 -219z
m115 -23 c69 -223 69 -216 -6 -217 -24 -1 -42 6 -54 19 -17 18 -19 41 -20 208
-1 182 1 209 12 198 3 -3 34 -97 68 -208z"/>
<path d="M3953 3713 c-10 -4 -13 -146 -13 -664 l0 -660 154 -382 c187 -464
291 -709 346 -811 68 -129 115 -201 132 -204 10 -2 38 30 83 96 l67 100 -62
158 c-121 309 -216 598 -316 959 -56 201 -312 1180 -355 1360 -11 45 -18 55
-36 48z m78 -352 c22 -86 42 -165 44 -176 5 -21 176 -675 219 -835 81 -304
217 -721 330 -1009 31 -80 55 -150 52 -157 -7 -18 -99 -144 -105 -144 -10 0
-97 158 -149 270 -50 106 -102 232 -322 775 l-122 300 -2 588 c-1 324 2 579 6
566 5 -12 27 -92 49 -178z"/>
<path d="M3387 3591 c-80 -72 -156 -282 -157 -431 0 -100 20 -127 100 -135 30
-4 69 -8 85 -10 17 -2 88 -7 157 -11 l127 -6 -5 31 c-5 30 -114 375 -149 471
-9 25 -18 53 -20 64 -16 73 -74 85 -138 27z m166 -228 c41 -126 82 -251 90
-279 l15 -52 -41 4 c-337 24 -326 23 -340 53 -44 91 42 398 133 475 61 50 62
49 143 -201z"/>
<path d="M3559 3607 c-9 -20 -7 -38 9 -89 11 -34 50 -156 87 -270 l66 -208 35
0 c33 0 36 3 62 61 26 59 28 68 27 223 -1 147 -3 165 -24 207 -30 59 -81 86
-178 94 -70 6 -73 5 -84 -18z m186 -42 c55 -32 65 -68 65 -240 0 -130 -3 -160
-20 -199 -10 -25 -25 -46 -33 -46 -9 0 -25 37 -46 103 -17 56 -53 171 -80 256
l-50 154 67 -6 c37 -3 81 -13 97 -22z"/>
<path d="M3040 3036 c-513 -765 -961 -1334 -1472 -1871 -57 -60 -64 -71 -48
-77 20 -7 89 -13 260 -23 117 -7 206 -12 325 -20 119 -8 230 -14 320 -20 91
-5 280 -16 340 -20 22 -1 101 -6 175 -9 74 -4 150 -9 168 -10 17 -1 33 3 33 8
4 35 3 2159 -1 2170 -3 8 -46 -47 -100 -128z m70 -990 l0 -1025 -67 4 c-38 2
-120 6 -183 10 -63 3 -140 7 -170 10 -55 4 -159 10 -345 20 -55 3 -127 7 -160
10 -33 2 -105 7 -160 10 -55 3 -131 8 -170 10 -38 2 -115 7 -170 11 -55 3
-102 7 -104 10 -3 3 92 111 179 204 54 58 133 145 180 200 30 35 60 68 65 74
37 39 242 291 355 437 232 297 393 520 635 876 61 89 111 162 113 163 1 0 2
-461 2 -1024z"/>
<path d="M3405 2749 c-68 -9 -119 -42 -141 -90 -16 -37 -19 -65 -18 -203 2
-206 9 -329 22 -353 25 -45 32 -47 268 -46 252 1 247 0 285 75 17 33 19 62 19
258 1 207 0 223 -20 259 -53 93 -206 130 -415 100z m245 -33 c64 -11 114 -42
138 -85 19 -33 20 -51 18 -246 -3 -227 -11 -266 -59 -284 -12 -5 -113 -9 -225
-9 -198 -1 -202 -1 -216 21 -20 31 -37 409 -22 489 14 75 69 113 171 117 33 2
61 3 62 4 4 5 93 0 133 -7z"/>
<path d="M3964 2145 c-4 -11 1 -1071 6 -1191 0 -23 75 -63 130 -69 30 -3 66
-8 80 -10 38 -6 180 -24 232 -29 47 -5 47 -5 93 49 l47 55 -50 82 c-117 196
-239 463 -449 988 -25 63 -50 121 -56 128 -13 16 -26 15 -33 -3z m96 -237
c172 -425 303 -710 403 -881 l45 -75 -31 -37 -30 -37 -66 7 c-36 3 -79 8 -96
11 -40 6 -88 12 -155 20 -61 7 -120 30 -121 48 -10 191 -18 1076 -9 1076 3 0
30 -60 60 -132z"/>
<path d="M3390 1756 c-38 -20 -66 -44 -88 -76 l-33 -48 1 -298 0 -298 25 -32
c22 -28 32 -33 102 -42 140 -20 284 -33 383 -36 l55 -1 0 365 c0 353 -1 366
-22 411 -32 68 -68 81 -234 83 -130 1 -136 0 -189 -28z m344 -23 c62 -29 65
-48 68 -431 l4 -344 -96 7 c-52 3 -113 8 -135 10 -22 3 -62 7 -90 10 -131 14
-140 16 -160 41 -19 24 -20 41 -21 310 l-1 285 28 39 c16 22 50 51 76 64 43
22 60 25 171 25 92 0 132 -4 156 -16z"/>
<path d="M3795 702 c-32 -5 -230 -146 -230 -164 0 -9 43 -66 95 -127 83 -97
98 -110 120 -105 14 3 28 9 33 13 4 4 6 93 5 197 -3 183 -4 189 -23 186z m-11
-202 c0 -83 -3 -153 -6 -156 -3 -3 -44 39 -92 92 l-85 97 37 27 c88 63 128 89
137 90 6 0 10 -55 9 -150z"/>
<path d="M3995 676 c-15 -12 -32 -153 -26 -223 3 -36 99 26 281 180 18 15 31
30 28 32 -2 3 -51 7 -109 11 -57 3 -116 7 -131 9 -15 1 -34 -3 -43 -9z m201
-39 c5 -5 -180 -146 -187 -141 -7 4 -2 116 6 142 3 9 27 11 92 7 48 -3 88 -7
89 -8z"/>
<path d="M2897 663 c-1 0 -78 -4 -172 -8 -93 -3 -199 -8 -235 -10 -36 -2 -117
-6 -180 -10 -255 -13 -299 -15 -385 -20 -49 -3 -119 -7 -155 -10 -36 -3 -108
-7 -160 -10 -52 -3 -124 -7 -160 -10 -36 -2 -103 -7 -150 -10 -178 -12 -302
-24 -310 -31 -11 -12 26 -45 131 -117 241 -166 615 -326 894 -381 63 -13 81
-16 125 -22 25 -3 54 -9 65 -12 11 -3 157 -7 325 -9 288 -2 312 -1 440 22 74
14 136 25 137 25 1 0 8 6 15 13 19 20 18 568 -2 592 -11 13 -31 15 -117 13
-58 -2 -105 -4 -106 -5z m196 -32 c4 -1 6 -124 5 -273 l-3 -273 -85 -17 c-134
-28 -188 -31 -460 -31 -242 -1 -311 5 -505 38 -81 14 -309 82 -408 122 -62 24
-170 74 -242 110 -136 70 -361 212 -335 214 8 0 31 2 50 4 129 11 395 30 585
40 55 3 125 8 155 10 30 2 114 7 185 11 72 3 155 8 185 9 30 2 114 6 185 9 72
4 168 9 215 11 47 3 159 7 250 11 91 3 166 7 167 8 2 2 13 2 25 0 13 -1 26 -3
31 -3z"/>
<path d="M3304 643 c-13 -14 -24 -35 -24 -47 0 -12 -3 -78 -6 -148 -5 -125 -4
-127 17 -125 11 1 46 25 77 53 32 28 81 74 111 101 l55 50 -40 51 c-38 50 -44
54 -152 88 -7 2 -24 -8 -38 -23z m88 -29 c26 -6 88 -65 88 -83 0 -4 -14 -20
-31 -34 -17 -14 -55 -49 -85 -77 l-55 -53 2 110 c3 126 11 157 36 149 10 -3
30 -8 45 -12z"/>
<path d="M3434 368 l-126 -113 178 -3 c187 -3 207 -1 238 23 18 13 16 17 -30
72 -50 59 -122 133 -129 133 -2 0 -61 -51 -131 -112z m200 -7 c31 -35 54 -67
51 -70 -4 -3 -69 -6 -147 -6 l-140 0 78 73 c43 40 84 71 90 70 6 -2 36 -32 68
-67z"/>
<path d="M3332 178 c16 -21 34 -40 39 -44 10 -5 125 31 141 45 4 3 3 12 -1 20
-6 9 -37 13 -109 15 l-100 1 30 -37z m75 -4 c-3 -3 -12 -4 -19 -1 -8 3 -5 6 6
6 11 1 17 -2 13 -5z"/>
</g>
</svg>
